#!OML:ASF H:\Punching\Project 1\Capture day 1\Session 1\female.ASF
:FULLY-SPECIFIED
:DEGREES
2129
root -0.810566 15.643 -2.37129 8.4827 -16.427 4.06807
lowerback -1.55001 -2.19574 -2.38278
upperback -5.9532 -3.03282 -0.584812
thorax -5.19775 -1.4272 0.815397
lowerneck -9.71291 -6.62038 -2.4946
upperneck 21.001 -8.75511 -0.427368
head 8.19649 -4.42688 -0.603889
rclavicle -2.08103e-015 -1.13307e-014
rhumerus -36.8656 -0.0336634 -71.4892
rradius 37.3977
rwrist -7.94189
rhand -18.1942 -9.8746
rfingers 7.12502
rthumb 8.0829 -39.7
lclavicle -2.08103e-015 -1.13307e-014
lhumerus -57.0761 12.6561 71.2449
lradius 46.8177
lwrist -3.07068
lhand -8.9654 19.2188
lfingers 7.12502
lthumb 16.9797 48.4967
rfemur -3.87825 6.5122 14.8411
rtibia 22.7141
rfoot -24.8502 -29.684
rtoes 0.927878
lfemur -25.1385 -12.216 -16.5338
ltibia 19.9181
lfoot -4.71633 28.6141
ltoes 5.17366
2130
root -0.773856 15.6486 -2.29433 8.24016 -16.5573 4.53892
lowerback -1.56019 -2.18898 -2.89024
upperback -6.03988 -3.04035 -0.712241
thorax -5.26704 -1.40897 0.967595
lowerneck -9.75081 -6.63184 -2.49526
upperneck 21.2466 -8.78497 -0.403057
head 8.28757 -4.43829 -0.606781
rclavicle -7.21216e-015 -6.36111e-015
rhumerus -36.7938 0.0540244 -71.5369
rradius 38.2079
rwrist -8.51482
rhand -18.1961 -9.9844
rfingers 7.12502
rthumb 8.08111 -39.8099
lclavicle -7.21216e-015 -6.36111e-015
lhumerus -56.6678 12.5657 71.3406
lradius 47.5964
lwrist -2.55498
lhand -9.36265 19.2226
lfingers 7.12502
lthumb 16.5973 48.5329
rfemur -3.63702 6.62816 14.1428
rtibia 22.972
rfoot -24.9884 -29.7387
rtoes 0.391811
lfemur -24.5935 -11.8188 -17.4751
ltibia 19.6689
lfoot -4.56056 28.0553
ltoes 5.67173
2131
root -0.737629 15.6546 -2.22007 8.01654 -16.676 5.04637
lowerback -1.56311 -2.18368 -3.44922
upperback -6.14425 -3.05244 -0.841292
thorax -5.35756 -1.3895 1.14731
lowerneck -9.78162 -6.6423 -2.49895
upperneck 21.4878 -8.81006 -0.392977
head 8.37558 -4.44909 -0.612994
rclavicle -3.3048e-014 -2.98177e-015
rhumerus -36.7659 0.0991232 -71.5776
rradius 38.9693
rwrist -8.8798
rhand -18.1851 -9.96614
rfingers 7.12502
rthumb 8.09173 -39.7912
lclavicle -3.3048e-014 -2.98177e-015
lhumerus -56.277 12.4362 71.4681
lradius 48.3756
lwrist -2.0824
lhand -9.67341 19.229
lfingers 7.12502
lthumb 16.2981 48.5641
rfemur -3.51967 6.64571 13.3918
rtibia 23.3797
rfoot -25.1204 -29.704
rtoes -0.218669
lfemur -24.026 -11.2974 -18.4558
ltibia 19.2793
lfoot -4.3877 27.354
ltoes 6.01975
2132
root -0.701586 15.6612 -2.14798 7.83148 -16.7847 5.53846
lowerback -1.58287 -2.18148 -4.00229
upperback -6.25739 -3.06844 -0.958844
thorax -5.44812 -1.37113 1.33487
lowerneck -9.81292 -6.64632 -2.49613
upperneck 21.7231 -8.82203 -0.406261
head 8.46031 -4.45546 -0.626434
rclavicle -2.19409e-014 -1.8487e-014
rhumerus -36.7694 0.134196 -71.6285
rradius 39.6941
rwrist -9.08498
rhand -18.1393 -9.84332
rfingers 7.12502
rthumb 8.1359 -39.6667
lclavicle -2.19409e-014 -1.8487e-014
lhumerus -55.896 12.2862 71.619
lradius 49.1537
lwrist -1.67464
lhand -9.86795 19.2749
lfingers 7.12502
lthumb 16.1108 48.6252
rfemur -3.50715 6.56282 12.6377
rtibia 23.8853
rfoot -25.1976 -29.5747
rtoes -0.925611
lfemur -23.4673 -10.708 -19.4085
ltibia 18.7948
lfoot -4.19478 26.5848
ltoes 6.2522
2133
root -0.665313 15.6686 -2.07751 7.69975 -16.8907 5.96034
lowerback -1.61903 -2.17882 -4.48868
upperback -6.38072 -3.08176 -1.05259
thorax -5.54265 -1.35315 1.5092
lowerneck -9.82443 -6.64373 -2.48842
upperneck 21.9347 -8.82166 -0.436514
head 8.53237 -4.4576 -0.643565
rclavicle -3.40419e-015 1.94809e-014
rhumerus -36.8046 0.174596 -71.6973
rradius 40.3892
rwrist -9.16731
rhand -18.0429 -9.67369
rfingers 7.12502
rthumb 8.22895 -39.4934
lclavicle -3.40419e-015 1.94809e-014
lhumerus -55.5363 12.1116 71.7931
lradius 49.9361
lwrist -1.32122
lhand -9.97898 19.3385
lfingers 7.12502
lthumb 16.0039 48.6974
rfemur -3.57177 6.4003 11.9362
rtibia 24.4289
rfoot -25.1839 -29.3592
rtoes -1.69651
lfemur -22.9449 -10.1164 -20.2644
ltibia 18.2769
lfoot -4.01388 25.8328
ltoes 6.39197
2134
root -0.628206 15.6774 -2.00801 7.6237 -17.0013 6.28537
lowerback -1.67829 -2.17522 -4.87342
upperback -6.50705 -3.08971 -1.1166
thorax -5.63076 -1.33627 1.65665
lowerneck -9.83315 -6.62927 -2.46987
upperneck 22.1275 -8.80141 -0.487275
head 8.59598 -4.45166 -0.666512
rclavicle -2.01021e-014 -1.98785e-016
rhumerus -36.8463 0.224122 -71.7895
rradius 41.0396
rwrist -9.1649
rhand -17.9226 -9.49355
rfingers 7.12502
rthumb 8.34498 -39.3087
lclavicle -2.01021e-014 -1.98785e-016
lhumerus -55.1937 11.9202 71.9917
lradius 50.714
lwrist -1.01357
lhand -10.032 19.4278
lfingers 7.12502
lthumb 15.9528 48.7909
rfemur -3.68797 6.16407 11.3123
rtibia 24.9667
rfoot -25.0365 -29.0668
rtoes -2.55323
lfemur -22.4749 -9.55902 -20.9966
ltibia 17.7825
lfoot -3.86965 25.1544
ltoes 6.48664
2135
root -0.589893 15.6877 -1.93921 7.59698 -17.1263 6.49634
lowerback -1.75408 -2.16585 -5.13331
upperback -6.62837 -3.08499 -1.14961
thorax -5.70875 -1.31843 1.76576
lowerneck -9.84036 -6.60682 -2.44429
upperneck 22.2978 -8.76704 -0.552458
head 8.65052 -4.44006 -0.693226
rclavicle -1.41013e-014 6.16232e-015
rhumerus -36.8811 0.286233 -71.9059
rradius 41.6395
rwrist -9.11467
rhand -17.7567 -9.25636
rfingers 7.12502
rthumb 8.50513 -39.0651
lclavicle -1.41013e-014 6.16232e-015
lhumerus -54.8644 11.7106 72.2175
lradius 51.4913
lwrist -0.743379
lhand -10.0389 19.528
lfingers 7.12502
lthumb 15.9462 48.8916
rfemur -3.83612 5.87601 10.7857
rtibia 25.4749
rfoot -24.7472 -28.7118
rtoes -3.45209
lfemur -22.0623 -9.07144 -21.5852
ltibia 17.3545
lfoot -3.79013 24.6012
ltoes 6.5732
2136
root -0.549993 15.6992 -1.87088 7.60731 -17.2741 6.60245
lowerback -1.83997 -2.14944 -5.27277
upperback -6.73889 -3.06605 -1.15432
thorax -5.77394 -1.29916 1.83645
lowerneck -9.8674 -6.57641 -2.411
upperneck 22.4576 -8.7178 -0.634653
head 8.7039 -4.42239 -0.725775
rclavicle -3.30976e-014 1.17283e-014
rhumerus -36.8887 0.3663 -72.0489
rradius 42.1815
rwrist -9.04601
rhand -17.5787 -9.02114
rfingers 7.12502
rthumb 8.67695 -38.8228
lclavicle -3.30976e-014 1.17283e-014
lhumerus -54.5481 11.4891 72.4705
lradius 52.2679
lwrist -0.501683
lhand -10.0206 19.6451
lfingers 7.12502
lthumb 15.9638 49.0073
rfemur -4.0065 5.5514 10.3466
rtibia 25.9535
rfoot -24.3346 -28.2971
rtoes -4.33556
lfemur -21.7019 -8.66068 -22.045
ltibia 17.0116
lfoot -3.7846 24.1852
ltoes 6.66973
2137
root -0.508335 15.7116 -1.80284 7.6439 -17.4498 6.62243
lowerback -1.93043 -2.1214 -5.30452
upperback -6.84231 -3.02804 -1.1397
thorax -5.83356 -1.27565 1.86674
lowerneck -9.90898 -6.53866 -2.37134
upperneck 22.6137 -8.65602 -0.728163
head 8.75788 -4.39937 -0.762291
rclavicle -2.66247e-014 -2.66371e-014
rhumerus -36.8719 0.447551 -72.209
rradius 42.6582
rwrist -8.96099
rhand -17.3825 -8.81846
rfingers 7.12502
rthumb 8.86626 -38.6122
lclavicle -2.66247e-014 -2.66371e-014
lhumerus -54.2507 11.2458 72.7495
lradius 53.031
lwrist -0.288319
lhand -9.99797 19.7615
lfingers 7.12502
lthumb 15.9856 49.122
rfemur -4.2 5.19751 9.97555
rtibia 26.4163
rfoot -23.8032 -27.8303
rtoes -5.22445
lfemur -21.3857 -8.33956 -22.3963
ltibia 16.7534
lfoot -3.85699 23.9175
ltoes 6.8117
2138
root -0.464989 15.7243 -1.7352 7.68849 -17.6519 6.58106
lowerback -2.01205 -2.08476 -5.2583
upperback -6.93556 -2.9765 -1.10905
thorax -5.89044 -1.24927 1.87036
lowerneck -9.97239 -6.4951 -2.33024
upperneck 22.776 -8.58297 -0.833005
head 8.81753 -4.37194 -0.802702
rclavicle -5.94615e-014 -1.98785e-014
rhumerus -36.8302 0.556995 -72.3877
rradius 43.0844
rwrist -8.88446
rhand -17.1384 -8.61564
rfingers 7.12502
rthumb 9.10176 -38.3992
lclavicle -5.94615e-014 -1.98785e-014
lhumerus -53.972 10.9909 73.0498
lradius 53.7805
lwrist -0.108837
lhand -9.96306 19.8926
lfingers 7.12502
lthumb 16.0192 49.2504
rfemur -4.41306 4.81969 9.64936
rtibia 26.8848
rfoot -23.1932 -27.3122
rtoes -6.09603
lfemur -21.0925 -8.09322 -22.6715
ltibia 16.5634
lfoot -3.99814 23.7756
ltoes 7.0055
2139
root -0.420219 15.737 -1.66785 7.73212 -17.8811 6.50037
lowerback -2.07939 -2.03959 -5.15616
upperback -7.02211 -2.91292 -1.07024
thorax -5.95075 -1.21974 1.85164
lowerneck -10.044 -6.44397 -2.28944
upperneck 22.9377 -8.49902 -0.936617
head 8.87872 -4.3393 -0.84187
rclavicle 1.80149e-014 -2.18663e-015
rhumerus -36.7738 0.697692 -72.5866
rradius 43.4716
rwrist -8.81056
rhand -16.868 -8.48413
rfingers 7.12502
rthumb 9.36273 -38.2562
lclavicle 1.80149e-014 -2.18663e-015
lhumerus -53.7156 10.7196 73.3666
lradius 54.5039
lwrist 0.0502486
lhand -9.97459 19.9755
lfingers 7.12502
lthumb 16.0081 49.3341
rfemur -4.64872 4.43476 9.34712
rtibia 27.3805
rfoot -22.5239 -26.7487
rtoes -6.94065
lfemur -20.806 -7.91139 -22.896
ltibia 16.4181
lfoot -4.19817 23.7434
ltoes 7.26253
2140
root -0.374431 15.7494 -1.60119 7.76992 -18.1298 6.39052
lowerback -2.12831 -1.99035 -5.01451
upperback -7.10062 -2.84382 -1.02547
thorax -6.01433 -1.18953 1.81765
lowerneck -10.1307 -6.38412 -2.24083
upperneck 23.1055 -8.40343 -1.04195
head 8.94454 -4.30071 -0.882433
rclavicle -8.74653e-015 -1.17283e-014
rhumerus -36.7082 0.882018 -72.8098
rradius 43.8361
rwrist -8.73844
rhand -16.5601 -8.4179
rfingers 7.12502
rthumb 9.65981 -38.1764
lclavicle -8.74653e-015 -1.17283e-014
lhumerus -53.4841 10.4419 73.6895
lradius 55.1983
lwrist 0.174066
lhand -10.0126 20.0158
lfingers 7.12502
lthumb 15.9715 49.3774
rfemur -4.90778 4.05381 9.06304
rtibia 27.918
rfoot -21.83 -26.1413
rtoes -7.73541
lfemur -20.5161 -7.76282 -23.0864
ltibia 16.2976
lfoot -4.43101 23.7771
ltoes 7.54772
